inDegrees=no
num_controls=7
num_derivatives=13
num_iterations=84
num_multipliers=7
num_parameters=0
num_slacks=7
num_states=26
objective=0.333928
objective_accelerations=0.037047
objective_balance=0.001329
objective_effort=0.027199
objective_height=0.266882
objective_ligament=0.001472
solver_duration=885.485076
status=Solve_Succeeded
success=true
DataType=double
version=3
OpenSimVersion=4.5
endheader
time	/jointset/ground_pelvis/pelvis_tilt/value	/jointset/ground_pelvis/pelvis_tx/value	/jointset/ground_pelvis/pelvis_ty/value	/jointset/hip_r/hip_flexion_r/value	/jointset/hip_r/hip_adduction_r/value	/jointset/hip_r/hip_rotation_r/value	/jointset/back/lumbar_extension/value	/jointset/patellofemoral_r/patellar_flexion_r/value	/jointset/knee_r/knee_flexion_r/value	/jointset/knee_r/knee_adduction_r/value	/jointset/knee_r/knee_rotation_r/value	/jointset/ankle_r/ankle_angle_r/value	/jointset/subtalar_r/subtalar_angle_r/value	/jointset/ground_pelvis/pelvis_tilt/speed	/jointset/ground_pelvis/pelvis_tx/speed	/jointset/ground_pelvis/pelvis_ty/speed	/jointset/hip_r/hip_flexion_r/speed	/jointset/hip_r/hip_adduction_r/speed	/jointset/hip_r/hip_rotation_r/speed	/jointset/back/lumbar_extension/speed	/jointset/patellofemoral_r/patellar_flexion_r/speed	/jointset/knee_r/knee_flexion_r/speed	/jointset/knee_r/knee_adduction_r/speed	/jointset/knee_r/knee_rotation_r/speed	/jointset/ankle_r/ankle_angle_r/speed	/jointset/subtalar_r/subtalar_angle_r/speed	/forceset/tau_hip_flexion_r	/forceset/tau_hip_adduction_r	/forceset/tau_hip_rotation_r	/forceset/tau_knee_flexion_r	/forceset/tau_ankle_angle_r	/forceset/tau_subtalar_angle_r	/forceset/tau_lumbar_extension	lambda_cid13_p0	lambda_cid14_p0	lambda_cid14_p1	lambda_cid14_p2	lambda_cid14_p3	lambda_cid14_p4	lambda_cid14_p5	/jointset/ground_pelvis/pelvis_tilt/accel	/jointset/ground_pelvis/pelvis_tx/accel	/jointset/ground_pelvis/pelvis_ty/accel	/jointset/hip_r/hip_flexion_r/accel	/jointset/hip_r/hip_adduction_r/accel	/jointset/hip_r/hip_rotation_r/accel	/jointset/back/lumbar_extension/accel	/jointset/patellofemoral_r/patellar_flexion_r/accel	/jointset/knee_r/knee_flexion_r/accel	/jointset/knee_r/knee_adduction_r/accel	/jointset/knee_r/knee_rotation_r/accel	/jointset/ankle_r/ankle_angle_r/accel	/jointset/subtalar_r/subtalar_angle_r/accel	gamma_cid13_p0	gamma_cid14_p0	gamma_cid14_p1	gamma_cid14_p2	gamma_cid14_p3	gamma_cid14_p4	gamma_cid14_p5
1	-0.2826824341631282	-0.008844571500079477	0.6311691420835721	1.474443565514501	-0.2380775318433291	-0.08775805229406572	-0.7853955702249726	1.508484659579291	1.508484659579291	-0.1745300383607452	0.1736328948310972	0.4362322869294986	0.1762201118003136	0.07116308451924383	0.006662827635195116	0.01659360346673593	-0.1054081239133444	-0.001891374607044287	-0.001947406240882629	0.0001442934841841578	-0.01906484257231113	-0.01906484257231125	0.005820169853027008	0.001297543375300881	0.01490338388827934	0.004163939506395911	-0.3656254198922393	0.04758722402759735	0.007266423017596238	-0.4314473194753555	-0.04810113764499951	0.001023883696721213	0.3753668511129166	-0.04107383206574714	-67.77097435385608	-16.00767288684023	8.212468147146883	8.566336636398241	-773.9163413336344	53.61985607672229	1.436340755428704	0.1639314024033512	1.877394357100522	-5.710619438543538	0.2134628626907627	-0.2331614470485259	0.01197789822995303	-5.098921062127601	-5.098921062127578	1.142376610806984	0.03284999115998283	-1.028662288899549	-0.1217520118036547	4.705901189158596e-09	6.651989942403762e-09	2.353444559185193e-08	3.411792880210998e-08	-3.818810676619669e-09	-6.249227819594718e-09	5.903748553023707e-08
1.01	-0.2818996735612513	-0.008769578777027158	0.6314287352748106	1.473104832321569	-0.2380857421449073	-0.08778736301694458	-0.7853913223437287	1.508039761447936	1.508039761447936	-0.1744131331651048	0.1736469946063315	0.4363302638480224	0.1762558672034257	0.08538868914424035	0.008356465465748609	0.03531669822382076	-0.1623432224492167	0.0002592475277678794	-0.003994838728823853	0.0008477861204503185	-0.06988900781652824	-0.06988900781652826	0.01745274914697021	0.001495339735750063	0.004736224225681201	0.003030447956454624	-0.3663345333651345	0.04764414146102514	0.007283259059944001	-0.4310920062061652	-0.04849935369612026	0.001062148547466269	0.3763199253903084	-0.04106089303413833	-67.90681804695689	-16.00384634635655	8.199301257244663	8.355599060494452	-774.2706057227082	53.60484701594753	1.41562196679965	0.1751905628568904	1.868513684246347	-5.685657754710382	0.2173643008977069	-0.202540140291347	0.1209104496724321	-5.070300447106616	-5.070300447106614	1.15747686172921	0.009209009204462697	-1.004108610920927	-0.1026304715367397	1.278762580546253e-08	1.780106991712842e-08	6.210142412871182e-08	9.712329782551985e-08	-8.37446574137584e-09	-1.425511027404802e-08	1.580227158522537e-07
1.02	-0.2809746665829714	-0.008677027557774194	0.6318753087434666	1.471196607604558	-0.2380721457427331	-0.08783954926282771	-0.785375764435451	1.507087394425832	1.507087394425831	-0.1741831465219168	0.1736622652553138	0.4363278960087242	0.1762815911420489	0.09961235979981796	0.01017452687532387	0.05398965895026107	-0.2193064287291412	0.002469966143430587	-0.006522510841744762	0.002406298890618094	-0.1205586207222596	-0.1205586207222596	0.02843645936255977	0.001531718124882623	-0.005165567676156523	0.002157646608618369	-0.3670436468380298	0.04770105889445294	0.007300095102291801	-0.430736692936975	-0.04889756974724099	0.001100413398211343	0.3772729996677001	-0.04105428513662045	-68.04975826156941	-15.99523787305716	8.178490128684524	8.141932736296562	-774.7491268430831	53.63100060025956	1.435953961544925	0.1888161182077044	1.867367550971616	-5.716240987353946	0.225482158860871	-0.3292093720444643	0.1829819250102732	-5.068010594430455	-5.068010594430449	1.012602795135999	0.0005663968966884043	-0.9755887367474981	-0.06961397138264779	1.609176314194912e-08	2.313845024841566e-08	8.565429495454181e-08	1.216926151632023e-07	-1.2075894633738e-08	-2.030564314126424e-08	2.05938951544368e-07
1.03	-0.2799079879807731	-0.008565780647035063	0.6325083185943332	1.468719303364644	-0.2380362254266587	-0.08791869605398203	-0.7853401968321747	1.505628847173581	1.505628847173581	-0.1738455894997737	0.1736772769987043	0.4362273014298933	0.1762994392655796	0.1136664468461629	0.01208499918096447	0.07259961389284934	-0.2760887699995487	0.004714423226733124	-0.009305743170538439	0.004866242920334445	-0.1711498589858257	-0.1711498589858262	0.0390759089739013	0.001463741751946029	-0.01496301862980937	0.001407358973845134	-0.3672012136604694	0.0477553182549351	0.007417352802981452	-0.4304160225054415	-0.04920219036150626	0.001100993131528168	0.377772244261096	-0.04107518057940903	-68.15636967526552	-15.99851736214927	8.16172468928829	8.095454217406001	-774.9618312249057	53.64652332569842	1.381604690744884	0.1936811969101364	1.855899562579816	-5.649377962190179	0.2239949824631615	-0.2527023412081447	0.3013538153048717	-5.054538720183253	-5.054538720183332	1.089756812337629	-0.01147401158160074	-0.9832733189589493	-0.07839470720079003	1.934714958782531e-08	2.841652752211676e-08	1.090539605996469e-07	1.458697278918465e-07	-1.576860693250431e-08	-2.633622346167191e-08	2.53334075046381e-07
